<mxfile host="Electron" agent="Mozilla/5.0 (Windows NT 10.0; Win64; x64) AppleWebKit/537.36 (KHTML, like Gecko) draw.io/28.1.2 Chrome/138.0.7204.243 Electron/37.4.0 Safari/537.36" version="28.1.2">
  <diagram name="Page-1" id="13e1069c-82ec-6db2-03f1-153e76fe0fe0">
    <mxGraphModel dx="2431" dy="1414" grid="1" gridSize="10" guides="1" tooltips="1" connect="1" arrows="1" fold="1" page="1" pageScale="1" pageWidth="1100" pageHeight="850" background="none" math="0" shadow="0">
      <root>
        <mxCell id="0" />
        <mxCell id="1" parent="0" />
        <mxCell id="NVErj-Y2SP6s06dEb738-17" value="" style="rounded=0;whiteSpace=wrap;html=1;align=right;verticalAlign=middle;backgroundOutline=0;fontColor=#212121;fillColor=none;strokeColor=#212121;" vertex="1" parent="1">
          <mxGeometry x="720" y="830" width="330" height="130" as="geometry" />
        </mxCell>
        <mxCell id="NVErj-Y2SP6s06dEb738-11" value="" style="endArrow=classic;html=1;rounded=0;strokeColor=#2196F3;backgroundOutline=0;fontColor=default;" edge="1" parent="1">
          <mxGeometry width="50" height="50" relative="1" as="geometry">
            <mxPoint x="730" y="920" as="sourcePoint" />
            <mxPoint x="810" y="920" as="targetPoint" />
          </mxGeometry>
        </mxCell>
        <mxCell id="NVErj-Y2SP6s06dEb738-12" value="" style="endArrow=classic;html=1;rounded=0;strokeColor=#FF9800;backgroundOutline=0;fontColor=default;" edge="1" parent="1">
          <mxGeometry width="50" height="50" relative="1" as="geometry">
            <mxPoint x="730" y="880" as="sourcePoint" />
            <mxPoint x="810" y="880" as="targetPoint" />
          </mxGeometry>
        </mxCell>
        <mxCell id="NVErj-Y2SP6s06dEb738-13" value="" style="endArrow=classic;html=1;rounded=0;strokeColor=#4CAF50;backgroundOutline=0;fontColor=default;" edge="1" parent="1">
          <mxGeometry width="50" height="50" relative="1" as="geometry">
            <mxPoint x="730" y="860" as="sourcePoint" />
            <mxPoint x="810" y="860" as="targetPoint" />
          </mxGeometry>
        </mxCell>
        <mxCell id="NVErj-Y2SP6s06dEb738-14" value="" style="endArrow=classic;html=1;rounded=0;strokeColor=#F44336;backgroundOutline=0;fontColor=default;" edge="1" parent="1">
          <mxGeometry width="50" height="50" relative="1" as="geometry">
            <mxPoint x="730" y="900" as="sourcePoint" />
            <mxPoint x="810" y="900" as="targetPoint" />
          </mxGeometry>
        </mxCell>
        <mxCell id="NVErj-Y2SP6s06dEb738-18" value="&lt;b&gt;&lt;font style=&quot;color: rgb(33, 33, 33);&quot;&gt;Legend:&lt;/font&gt;&lt;/b&gt;" style="text;html=1;align=center;verticalAlign=middle;whiteSpace=wrap;rounded=0;backgroundOutline=0;fontColor=#212121;" vertex="1" parent="1">
          <mxGeometry x="855" y="830" width="60" height="20" as="geometry" />
        </mxCell>
        <mxCell id="NVErj-Y2SP6s06dEb738-19" value="&lt;font style=&quot;font-size: 10px;&quot;&gt;HTTP over ZeroTier&lt;/font&gt;" style="text;html=1;align=left;verticalAlign=middle;whiteSpace=wrap;rounded=0;backgroundOutline=0;fontColor=#212121;" vertex="1" parent="1">
          <mxGeometry x="820" y="850" width="200" height="20" as="geometry" />
        </mxCell>
        <mxCell id="NVErj-Y2SP6s06dEb738-20" value="&lt;font style=&quot;font-size: 10px;&quot;&gt;HTTP over ZeroTier - valid session required&lt;/font&gt;" style="text;html=1;align=left;verticalAlign=middle;whiteSpace=wrap;rounded=0;backgroundOutline=0;fontColor=#212121;" vertex="1" parent="1">
          <mxGeometry x="820" y="870" width="210" height="20" as="geometry" />
        </mxCell>
        <mxCell id="NVErj-Y2SP6s06dEb738-21" value="&lt;font style=&quot;font-size: 10px;&quot;&gt;HTTPS over LAN - valid token required&lt;/font&gt;" style="text;html=1;align=left;verticalAlign=middle;whiteSpace=wrap;rounded=0;backgroundOutline=0;fontColor=#212121;" vertex="1" parent="1">
          <mxGeometry x="820" y="890" width="200" height="20" as="geometry" />
        </mxCell>
        <mxCell id="NVErj-Y2SP6s06dEb738-22" value="&lt;font style=&quot;font-size: 10px;&quot;&gt;SPICE (tcp) over ZeroTier - valid session required&lt;/font&gt;" style="text;html=1;align=left;verticalAlign=middle;whiteSpace=wrap;rounded=0;backgroundOutline=0;fontColor=#212121;" vertex="1" parent="1">
          <mxGeometry x="820" y="910" width="230" height="20" as="geometry" />
        </mxCell>
        <mxCell id="NVErj-Y2SP6s06dEb738-23" value="" style="endArrow=classic;html=1;rounded=0;strokeColor=#9C27B0;backgroundOutline=0;fontColor=default;" edge="1" parent="1">
          <mxGeometry width="50" height="50" relative="1" as="geometry">
            <mxPoint x="730" y="940" as="sourcePoint" />
            <mxPoint x="810" y="940" as="targetPoint" />
          </mxGeometry>
        </mxCell>
        <mxCell id="NVErj-Y2SP6s06dEb738-24" value="&lt;font style=&quot;font-size: 10px;&quot;&gt;SPICE (tcp) over LAN - valid session required&lt;/font&gt;" style="text;html=1;align=left;verticalAlign=middle;whiteSpace=wrap;rounded=0;backgroundOutline=0;fontColor=#212121;" vertex="1" parent="1">
          <mxGeometry x="820" y="930" width="210" height="20" as="geometry" />
        </mxCell>
        <mxCell id="NVErj-Y2SP6s06dEb738-26" value="" style="endArrow=classic;html=1;rounded=0;strokeColor=#4CAF50;backgroundOutline=0;fontColor=default;" edge="1" parent="1">
          <mxGeometry width="50" height="50" relative="1" as="geometry">
            <mxPoint x="119.5" y="199" as="sourcePoint" />
            <mxPoint x="399.5" y="199" as="targetPoint" />
          </mxGeometry>
        </mxCell>
        <mxCell id="NVErj-Y2SP6s06dEb738-28" value="&lt;font style=&quot;&quot;&gt;GET /health&lt;/font&gt;" style="edgeLabel;html=1;align=center;verticalAlign=middle;resizable=0;points=[];labelBackgroundColor=none;backgroundOutline=0;fontColor=#4CAF50;" vertex="1" connectable="0" parent="NVErj-Y2SP6s06dEb738-26">
          <mxGeometry x="-0.0526" y="-1" relative="1" as="geometry">
            <mxPoint x="8" y="-10" as="offset" />
          </mxGeometry>
        </mxCell>
        <mxCell id="NVErj-Y2SP6s06dEb738-29" value="" style="endArrow=classic;html=1;rounded=0;strokeColor=#4CAF50;backgroundOutline=0;fontColor=default;" edge="1" parent="1">
          <mxGeometry width="50" height="50" relative="1" as="geometry">
            <mxPoint x="399.5000000000002" y="220.00000000000023" as="sourcePoint" />
            <mxPoint x="119.81034482758628" y="220.00000000000023" as="targetPoint" />
          </mxGeometry>
        </mxCell>
        <mxCell id="NVErj-Y2SP6s06dEb738-30" value="&lt;font style=&quot;&quot;&gt;HTTP 200 OK&lt;/font&gt;" style="edgeLabel;html=1;align=center;verticalAlign=middle;resizable=0;points=[];labelBackgroundColor=none;backgroundOutline=0;fontColor=#4CAF50;" vertex="1" connectable="0" parent="NVErj-Y2SP6s06dEb738-29">
          <mxGeometry x="-0.0526" y="-1" relative="1" as="geometry">
            <mxPoint x="-7" y="-9" as="offset" />
          </mxGeometry>
        </mxCell>
        <mxCell id="NVErj-Y2SP6s06dEb738-36" value="" style="endArrow=classic;html=1;rounded=0;strokeColor=#FF9800;fontColor=default;backgroundOutline=0;" edge="1" parent="1">
          <mxGeometry width="50" height="50" relative="1" as="geometry">
            <mxPoint x="399.68965517241395" y="440" as="sourcePoint" />
            <mxPoint x="120" y="440" as="targetPoint" />
          </mxGeometry>
        </mxCell>
        <mxCell id="NVErj-Y2SP6s06dEb738-37" value="&lt;font style=&quot;&quot;&gt;HTTP 200 OK&lt;/font&gt;" style="edgeLabel;html=1;align=center;verticalAlign=middle;resizable=0;points=[];labelBackgroundColor=none;fontColor=#FF9800;backgroundOutline=0;" vertex="1" connectable="0" parent="NVErj-Y2SP6s06dEb738-36">
          <mxGeometry x="-0.0526" y="-1" relative="1" as="geometry">
            <mxPoint x="-7" y="-9" as="offset" />
          </mxGeometry>
        </mxCell>
        <mxCell id="eheHoFolUutEQpmwxyWd-45" value="" style="endArrow=classic;html=1;rounded=0;labelBackgroundColor=none;strokeColor=#F44336;backgroundOutline=0;fontColor=default;" parent="1" edge="1">
          <mxGeometry width="50" height="50" relative="1" as="geometry">
            <mxPoint x="679.5" y="540" as="sourcePoint" />
            <mxPoint x="400" y="540" as="targetPoint" />
          </mxGeometry>
        </mxCell>
        <mxCell id="eheHoFolUutEQpmwxyWd-46" value="Available SPICE VMs" style="edgeLabel;html=1;align=center;verticalAlign=middle;resizable=0;points=[];labelBackgroundColor=none;textShadow=0;fontColor=#F44336;backgroundOutline=0;" parent="eheHoFolUutEQpmwxyWd-45" vertex="1" connectable="0">
          <mxGeometry x="-0.0144" relative="1" as="geometry">
            <mxPoint y="-10" as="offset" />
          </mxGeometry>
        </mxCell>
        <mxCell id="eheHoFolUutEQpmwxyWd-56" value="" style="endArrow=classic;html=1;rounded=0;labelBackgroundColor=none;strokeColor=#FF9800;backgroundOutline=0;fontColor=default;" parent="1" edge="1">
          <mxGeometry width="50" height="50" relative="1" as="geometry">
            <mxPoint x="120" y="640" as="sourcePoint" />
            <mxPoint x="399.5" y="640" as="targetPoint" />
          </mxGeometry>
        </mxCell>
        <mxCell id="eheHoFolUutEQpmwxyWd-57" value="GET /spice/{node}/{vmid}" style="edgeLabel;html=1;align=center;verticalAlign=middle;resizable=0;points=[];labelBackgroundColor=none;fontColor=#FF9800;backgroundOutline=0;" parent="eheHoFolUutEQpmwxyWd-56" vertex="1" connectable="0">
          <mxGeometry x="-0.0144" relative="1" as="geometry">
            <mxPoint y="-10" as="offset" />
          </mxGeometry>
        </mxCell>
        <mxCell id="eheHoFolUutEQpmwxyWd-58" value="" style="endArrow=classic;html=1;rounded=0;labelBackgroundColor=none;strokeColor=#F44336;backgroundOutline=0;fontColor=default;" parent="1" edge="1">
          <mxGeometry width="50" height="50" relative="1" as="geometry">
            <mxPoint x="400.0999999999999" y="660" as="sourcePoint" />
            <mxPoint x="679.5" y="660" as="targetPoint" />
          </mxGeometry>
        </mxCell>
        <mxCell id="eheHoFolUutEQpmwxyWd-59" value="POST /api2/json/nodes/{node}/qemu/{vmid}/spiceproxy" style="edgeLabel;html=1;align=center;verticalAlign=middle;resizable=0;points=[];labelBackgroundColor=none;fontColor=#F44336;backgroundOutline=0;" parent="eheHoFolUutEQpmwxyWd-58" vertex="1" connectable="0">
          <mxGeometry x="-0.0144" relative="1" as="geometry">
            <mxPoint y="-10" as="offset" />
          </mxGeometry>
        </mxCell>
        <mxCell id="NVErj-Y2SP6s06dEb738-58" value="" style="endArrow=classic;html=1;rounded=0;labelBackgroundColor=none;strokeColor=#9C27B0;startArrow=classic;startFill=1;backgroundOutline=0;fontColor=default;" edge="1" parent="1">
          <mxGeometry width="50" height="50" relative="1" as="geometry">
            <mxPoint x="679.3095238095237" y="900" as="sourcePoint" />
            <mxPoint x="400" y="900" as="targetPoint" />
          </mxGeometry>
        </mxCell>
        <mxCell id="NVErj-Y2SP6s06dEb738-59" value="&lt;font style=&quot;&quot;&gt;SPICE session traffic (LAN)&lt;/font&gt;" style="edgeLabel;html=1;align=center;verticalAlign=middle;resizable=0;points=[];labelBackgroundColor=none;backgroundOutline=0;fontColor=#9C27B0;" vertex="1" connectable="0" parent="NVErj-Y2SP6s06dEb738-58">
          <mxGeometry x="-0.0144" relative="1" as="geometry">
            <mxPoint y="-10" as="offset" />
          </mxGeometry>
        </mxCell>
        <mxCell id="NVErj-Y2SP6s06dEb738-66" value="&lt;font style=&quot;color: rgb(156, 39, 176);&quot;&gt;Port forward established&lt;/font&gt;" style="edgeLabel;html=1;align=center;verticalAlign=middle;resizable=0;points=[];labelBackgroundColor=none;backgroundOutline=0;fontColor=default;" vertex="1" connectable="0" parent="1">
          <mxGeometry x="540" y="150" as="geometry">
            <mxPoint x="2" y="-1" as="offset" />
          </mxGeometry>
        </mxCell>
        <mxCell id="NVErj-Y2SP6s06dEb738-25" value="&lt;font style=&quot;color: rgb(33, 33, 33);&quot;&gt;User inputs server address&lt;/font&gt;" style="rounded=0;whiteSpace=wrap;html=1;align=center;verticalAlign=middle;backgroundOutline=0;fontColor=#212121;fillColor=none;strokeColor=#212121;" vertex="1" parent="1">
          <mxGeometry x="60" y="140" width="120" height="40" as="geometry" />
        </mxCell>
        <mxCell id="NVErj-Y2SP6s06dEb738-31" value="&lt;font style=&quot;color: rgb(33, 33, 33);&quot;&gt;User inputs username and TOTP code&lt;/font&gt;" style="rounded=0;whiteSpace=wrap;html=1;align=center;verticalAlign=middle;backgroundOutline=0;fontColor=#212121;fillColor=none;strokeColor=#212121;" vertex="1" parent="1">
          <mxGeometry x="60" y="240" width="120" height="40" as="geometry" />
        </mxCell>
        <mxCell id="NVErj-Y2SP6s06dEb738-41" value="&lt;font style=&quot;color: rgb(33, 33, 33);&quot;&gt;User selects VM to access from list&lt;/font&gt;" style="rounded=0;whiteSpace=wrap;html=1;align=center;verticalAlign=middle;backgroundOutline=0;fontColor=#212121;fillColor=none;strokeColor=#212121;" vertex="1" parent="1">
          <mxGeometry x="60" y="580" width="120" height="40" as="geometry" />
        </mxCell>
        <mxCell id="NVErj-Y2SP6s06dEb738-44" value="&lt;font style=&quot;color: rgb(33, 33, 33);&quot;&gt;Starts SPICE session with virt-viewer&lt;/font&gt;" style="rounded=0;whiteSpace=wrap;html=1;align=center;verticalAlign=middle;backgroundOutline=0;fontColor=#212121;fillColor=none;strokeColor=#212121;" vertex="1" parent="1">
          <mxGeometry x="60" y="840" width="120" height="40" as="geometry" />
        </mxCell>
        <mxCell id="NVErj-Y2SP6s06dEb738-32" value="" style="endArrow=classic;html=1;rounded=0;strokeColor=#4CAF50;backgroundOutline=0;fontColor=default;" edge="1" parent="1">
          <mxGeometry width="50" height="50" relative="1" as="geometry">
            <mxPoint x="119.5" y="300" as="sourcePoint" />
            <mxPoint x="399.5" y="300" as="targetPoint" />
          </mxGeometry>
        </mxCell>
        <mxCell id="NVErj-Y2SP6s06dEb738-33" value="&lt;font style=&quot;&quot;&gt;POST /login&lt;/font&gt;" style="edgeLabel;html=1;align=center;verticalAlign=middle;resizable=0;points=[];labelBackgroundColor=none;backgroundOutline=0;fontColor=#4CAF50;" vertex="1" connectable="0" parent="NVErj-Y2SP6s06dEb738-32">
          <mxGeometry x="-0.0526" y="-1" relative="1" as="geometry">
            <mxPoint x="8" y="-10" as="offset" />
          </mxGeometry>
        </mxCell>
        <mxCell id="NVErj-Y2SP6s06dEb738-47" value="" style="endArrow=classic;html=1;rounded=0;labelBackgroundColor=none;strokeColor=#2196F3;startArrow=classic;startFill=1;backgroundOutline=0;fontColor=default;" edge="1" parent="1">
          <mxGeometry width="50" height="50" relative="1" as="geometry">
            <mxPoint x="399.30952380952374" y="900" as="sourcePoint" />
            <mxPoint x="120" y="900" as="targetPoint" />
          </mxGeometry>
        </mxCell>
        <mxCell id="NVErj-Y2SP6s06dEb738-48" value="&lt;font style=&quot;&quot;&gt;SPICE session traffic (ZeroTier)&lt;/font&gt;" style="edgeLabel;html=1;align=center;verticalAlign=middle;resizable=0;points=[];labelBackgroundColor=none;backgroundOutline=0;fontColor=#2196F3;" vertex="1" connectable="0" parent="NVErj-Y2SP6s06dEb738-47">
          <mxGeometry x="-0.0144" relative="1" as="geometry">
            <mxPoint y="-10" as="offset" />
          </mxGeometry>
        </mxCell>
        <mxCell id="NVErj-Y2SP6s06dEb738-60" value="&lt;font style=&quot;color: rgb(33, 33, 33);&quot;&gt;.vv file deleted after SPICE session ends&lt;/font&gt;" style="rounded=0;whiteSpace=wrap;html=1;align=center;verticalAlign=middle;backgroundOutline=0;fontColor=#212121;fillColor=none;strokeColor=#212121;" vertex="1" parent="1">
          <mxGeometry x="60" y="920" width="120" height="40" as="geometry" />
        </mxCell>
        <mxCell id="NVErj-Y2SP6s06dEb738-67" value="&lt;font style=&quot;color: rgb(33, 33, 33);&quot;&gt;ZeroSpice Client&lt;/font&gt;" style="rounded=1;whiteSpace=wrap;html=1;align=center;verticalAlign=middle;fontColor=#212121;strokeColor=#212121;fillColor=none;" vertex="1" parent="1">
          <mxGeometry x="40" y="80" width="160" height="40" as="geometry" />
        </mxCell>
        <mxCell id="NVErj-Y2SP6s06dEb738-68" value="" style="endArrow=none;dashed=1;html=1;rounded=0;entryX=0.5;entryY=1;entryDx=0;entryDy=0;exitX=0.5;exitY=0;exitDx=0;exitDy=0;strokeColor=#212121;" edge="1" parent="1" source="NVErj-Y2SP6s06dEb738-25" target="NVErj-Y2SP6s06dEb738-67">
          <mxGeometry width="50" height="50" relative="1" as="geometry">
            <mxPoint x="-30" y="190" as="sourcePoint" />
            <mxPoint x="20" y="140" as="targetPoint" />
          </mxGeometry>
        </mxCell>
        <mxCell id="NVErj-Y2SP6s06dEb738-69" value="" style="endArrow=none;dashed=1;html=1;rounded=0;entryX=0.5;entryY=1;entryDx=0;entryDy=0;exitX=0.5;exitY=0;exitDx=0;exitDy=0;strokeColor=#212121;" edge="1" parent="1" source="NVErj-Y2SP6s06dEb738-31" target="NVErj-Y2SP6s06dEb738-25">
          <mxGeometry width="50" height="50" relative="1" as="geometry">
            <mxPoint x="90" y="230" as="sourcePoint" />
            <mxPoint x="90" y="210" as="targetPoint" />
          </mxGeometry>
        </mxCell>
        <mxCell id="NVErj-Y2SP6s06dEb738-70" value="" style="endArrow=none;dashed=1;html=1;rounded=0;entryX=0.5;entryY=1;entryDx=0;entryDy=0;exitX=0.5;exitY=0;exitDx=0;exitDy=0;strokeColor=#212121;" edge="1" parent="1" source="NVErj-Y2SP6s06dEb738-41" target="NVErj-Y2SP6s06dEb738-31">
          <mxGeometry width="50" height="50" relative="1" as="geometry">
            <mxPoint x="120" y="360" as="sourcePoint" />
            <mxPoint x="120" y="340" as="targetPoint" />
          </mxGeometry>
        </mxCell>
        <mxCell id="NVErj-Y2SP6s06dEb738-71" value="" style="endArrow=none;dashed=1;html=1;rounded=0;entryX=0.5;entryY=1;entryDx=0;entryDy=0;exitX=0.5;exitY=0;exitDx=0;exitDy=0;strokeColor=#212121;" edge="1" parent="1" source="NVErj-Y2SP6s06dEb738-44" target="NVErj-Y2SP6s06dEb738-41">
          <mxGeometry width="50" height="50" relative="1" as="geometry">
            <mxPoint x="100" y="730" as="sourcePoint" />
            <mxPoint x="100" y="710" as="targetPoint" />
          </mxGeometry>
        </mxCell>
        <mxCell id="NVErj-Y2SP6s06dEb738-72" value="" style="endArrow=none;dashed=1;html=1;rounded=0;entryX=0.5;entryY=1;entryDx=0;entryDy=0;exitX=0.5;exitY=0;exitDx=0;exitDy=0;strokeColor=#212121;" edge="1" parent="1" source="NVErj-Y2SP6s06dEb738-60" target="NVErj-Y2SP6s06dEb738-44">
          <mxGeometry width="50" height="50" relative="1" as="geometry">
            <mxPoint x="90" y="920" as="sourcePoint" />
            <mxPoint x="90" y="900" as="targetPoint" />
          </mxGeometry>
        </mxCell>
        <mxCell id="NVErj-Y2SP6s06dEb738-73" value="&lt;font style=&quot;color: rgb(33, 33, 33);&quot;&gt;ZeroSpice Server&lt;/font&gt;" style="rounded=1;whiteSpace=wrap;html=1;align=center;verticalAlign=middle;fontColor=#212121;strokeColor=#212121;fillColor=none;" vertex="1" parent="1">
          <mxGeometry x="320" y="80" width="160" height="40" as="geometry" />
        </mxCell>
        <mxCell id="NVErj-Y2SP6s06dEb738-34" value="&lt;font style=&quot;color: rgb(33, 33, 33);&quot;&gt;Validates username and TOTP code&lt;/font&gt;" style="rounded=0;whiteSpace=wrap;html=1;align=center;verticalAlign=middle;backgroundOutline=0;fontColor=#212121;fillColor=none;strokeColor=#212121;" vertex="1" parent="1">
          <mxGeometry x="340" y="320" width="120" height="40" as="geometry" />
        </mxCell>
        <mxCell id="NVErj-Y2SP6s06dEb738-35" value="&lt;font style=&quot;color: rgb(33, 33, 33);&quot;&gt;Generates session JWT&lt;/font&gt;" style="rounded=0;whiteSpace=wrap;html=1;align=center;verticalAlign=middle;backgroundOutline=0;fontColor=#212121;fillColor=none;strokeColor=#212121;" vertex="1" parent="1">
          <mxGeometry x="340" y="380" width="120" height="40" as="geometry" />
        </mxCell>
        <mxCell id="eheHoFolUutEQpmwxyWd-47" value="" style="endArrow=classic;html=1;rounded=0;labelBackgroundColor=none;strokeColor=#FF9800;backgroundOutline=0;fontColor=default;" parent="1" edge="1">
          <mxGeometry width="50" height="50" relative="1" as="geometry">
            <mxPoint x="399.3133333333334" y="560" as="sourcePoint" />
            <mxPoint x="120.00380952380965" y="560" as="targetPoint" />
          </mxGeometry>
        </mxCell>
        <mxCell id="eheHoFolUutEQpmwxyWd-48" value="Available SPICE VMs" style="edgeLabel;html=1;align=center;verticalAlign=middle;resizable=0;points=[];labelBackgroundColor=none;fontColor=#FF9800;backgroundOutline=0;" parent="eheHoFolUutEQpmwxyWd-47" vertex="1" connectable="0">
          <mxGeometry x="-0.0144" relative="1" as="geometry">
            <mxPoint y="-10" as="offset" />
          </mxGeometry>
        </mxCell>
        <mxCell id="NVErj-Y2SP6s06dEb738-43" value="&lt;font style=&quot;color: rgb(33, 33, 33);&quot;&gt;Modifies .vv file with proxy information&lt;/font&gt;" style="rounded=0;whiteSpace=wrap;html=1;align=center;verticalAlign=middle;backgroundOutline=0;fontColor=#212121;fillColor=none;strokeColor=#212121;" vertex="1" parent="1">
          <mxGeometry x="340" y="760" width="120" height="40" as="geometry" />
        </mxCell>
        <mxCell id="NVErj-Y2SP6s06dEb738-1" value="" style="endArrow=classic;html=1;rounded=0;labelBackgroundColor=none;strokeColor=#FF9800;backgroundOutline=0;fontColor=default;" edge="1" parent="1">
          <mxGeometry width="50" height="50" relative="1" as="geometry">
            <mxPoint x="399.30952380952374" y="820" as="sourcePoint" />
            <mxPoint x="120" y="820" as="targetPoint" />
          </mxGeometry>
        </mxCell>
        <mxCell id="NVErj-Y2SP6s06dEb738-2" value="&lt;font style=&quot;&quot;&gt;Modified .vv file&lt;/font&gt;" style="edgeLabel;html=1;align=center;verticalAlign=middle;resizable=0;points=[];labelBackgroundColor=none;backgroundOutline=0;fontColor=#FF9800;" vertex="1" connectable="0" parent="NVErj-Y2SP6s06dEb738-1">
          <mxGeometry x="-0.0144" relative="1" as="geometry">
            <mxPoint y="-10" as="offset" />
          </mxGeometry>
        </mxCell>
        <mxCell id="NVErj-Y2SP6s06dEb738-38" value="" style="endArrow=classic;html=1;rounded=0;strokeColor=#FF9800;fontColor=default;backgroundOutline=0;" edge="1" parent="1">
          <mxGeometry width="50" height="50" relative="1" as="geometry">
            <mxPoint x="119.81034482758628" y="460.0000000000002" as="sourcePoint" />
            <mxPoint x="399.5000000000002" y="460.0000000000002" as="targetPoint" />
          </mxGeometry>
        </mxCell>
        <mxCell id="NVErj-Y2SP6s06dEb738-39" value="&lt;font style=&quot;&quot;&gt;GET /offer&lt;/font&gt;" style="edgeLabel;html=1;align=center;verticalAlign=middle;resizable=0;points=[];labelBackgroundColor=none;fontColor=#FF9800;backgroundOutline=0;" vertex="1" connectable="0" parent="NVErj-Y2SP6s06dEb738-38">
          <mxGeometry x="-0.0526" y="-1" relative="1" as="geometry">
            <mxPoint x="8" y="-9" as="offset" />
          </mxGeometry>
        </mxCell>
        <mxCell id="eheHoFolUutEQpmwxyWd-43" value="" style="endArrow=classic;html=1;rounded=0;labelBackgroundColor=none;strokeColor=#F44336;backgroundOutline=0;fontColor=default;" parent="1" edge="1">
          <mxGeometry width="50" height="50" relative="1" as="geometry">
            <mxPoint x="400" y="480" as="sourcePoint" />
            <mxPoint x="679.5" y="480" as="targetPoint" />
          </mxGeometry>
        </mxCell>
        <mxCell id="eheHoFolUutEQpmwxyWd-44" value="POST /api2/json/nodes" style="edgeLabel;html=1;align=center;verticalAlign=middle;resizable=0;points=[];labelBackgroundColor=none;fontColor=#F44336;backgroundOutline=0;" parent="eheHoFolUutEQpmwxyWd-43" vertex="1" connectable="0">
          <mxGeometry x="-0.0033" y="-2" relative="1" as="geometry">
            <mxPoint y="-12" as="offset" />
          </mxGeometry>
        </mxCell>
        <mxCell id="eheHoFolUutEQpmwxyWd-51" value="" style="endArrow=classic;html=1;rounded=0;labelBackgroundColor=none;strokeColor=#F44336;backgroundOutline=0;fontColor=default;" parent="1" edge="1">
          <mxGeometry width="50" height="50" relative="1" as="geometry">
            <mxPoint x="679.5" y="500" as="sourcePoint" />
            <mxPoint x="400" y="500" as="targetPoint" />
          </mxGeometry>
        </mxCell>
        <mxCell id="eheHoFolUutEQpmwxyWd-52" value="Available Nodes" style="edgeLabel;html=1;align=center;verticalAlign=middle;resizable=0;points=[];labelBackgroundColor=none;fontColor=#F44336;backgroundOutline=0;" parent="eheHoFolUutEQpmwxyWd-51" vertex="1" connectable="0">
          <mxGeometry x="-0.0144" relative="1" as="geometry">
            <mxPoint y="-10" as="offset" />
          </mxGeometry>
        </mxCell>
        <mxCell id="eheHoFolUutEQpmwxyWd-53" value="" style="endArrow=classic;html=1;rounded=0;labelBackgroundColor=none;strokeColor=#F44336;backgroundOutline=0;fontColor=default;" parent="1" edge="1">
          <mxGeometry width="50" height="50" relative="1" as="geometry">
            <mxPoint x="400" y="520" as="sourcePoint" />
            <mxPoint x="679.5" y="520" as="targetPoint" />
          </mxGeometry>
        </mxCell>
        <mxCell id="eheHoFolUutEQpmwxyWd-54" value="POST /api2/json/nodes/*" style="edgeLabel;html=1;align=center;verticalAlign=middle;resizable=0;points=[];labelBackgroundColor=none;fontColor=#F44336;backgroundOutline=0;" parent="eheHoFolUutEQpmwxyWd-53" vertex="1" connectable="0">
          <mxGeometry x="-0.0033" y="-2" relative="1" as="geometry">
            <mxPoint y="-12" as="offset" />
          </mxGeometry>
        </mxCell>
        <mxCell id="NVErj-Y2SP6s06dEb738-63" value="" style="verticalLabelPosition=bottom;html=1;verticalAlign=top;strokeWidth=2;shape=mxgraph.lean_mapping.sequenced_pull_ball;align=right;backgroundOutline=0;fontColor=#212121;strokeColor=#212121;" vertex="1" parent="1">
          <mxGeometry x="395" y="950" width="10" height="10" as="geometry" />
        </mxCell>
        <mxCell id="NVErj-Y2SP6s06dEb738-65" value="" style="endArrow=classic;dashed=1;html=1;dashPattern=1 3;strokeWidth=2;rounded=0;startArrow=none;startFill=0;endFill=1;strokeColor=#9C27B0;backgroundOutline=0;fontColor=default;" edge="1" parent="1">
          <mxGeometry width="50" height="50" relative="1" as="geometry">
            <mxPoint x="400" y="160" as="sourcePoint" />
            <mxPoint x="680" y="160" as="targetPoint" />
          </mxGeometry>
        </mxCell>
        <mxCell id="NVErj-Y2SP6s06dEb738-74" value="" style="endArrow=none;dashed=1;html=1;rounded=0;entryX=0.5;entryY=1;entryDx=0;entryDy=0;exitX=0.5;exitY=0;exitDx=0;exitDy=0;strokeColor=#212121;" edge="1" parent="1" source="NVErj-Y2SP6s06dEb738-34" target="NVErj-Y2SP6s06dEb738-73">
          <mxGeometry width="50" height="50" relative="1" as="geometry">
            <mxPoint x="450" y="260" as="sourcePoint" />
            <mxPoint x="450" y="200" as="targetPoint" />
          </mxGeometry>
        </mxCell>
        <mxCell id="NVErj-Y2SP6s06dEb738-75" value="" style="endArrow=none;dashed=1;html=1;rounded=0;entryX=0.5;entryY=1;entryDx=0;entryDy=0;exitX=0.5;exitY=0;exitDx=0;exitDy=0;strokeColor=#212121;" edge="1" parent="1" source="NVErj-Y2SP6s06dEb738-35" target="NVErj-Y2SP6s06dEb738-34">
          <mxGeometry width="50" height="50" relative="1" as="geometry">
            <mxPoint x="510" y="410" as="sourcePoint" />
            <mxPoint x="510" y="350" as="targetPoint" />
          </mxGeometry>
        </mxCell>
        <mxCell id="NVErj-Y2SP6s06dEb738-76" value="" style="endArrow=none;dashed=1;html=1;rounded=0;entryX=0.5;entryY=1;entryDx=0;entryDy=0;exitX=0.5;exitY=0;exitDx=0;exitDy=0;strokeColor=#212121;" edge="1" parent="1" source="NVErj-Y2SP6s06dEb738-43" target="NVErj-Y2SP6s06dEb738-35">
          <mxGeometry width="50" height="50" relative="1" as="geometry">
            <mxPoint x="520" y="460" as="sourcePoint" />
            <mxPoint x="520" y="400" as="targetPoint" />
          </mxGeometry>
        </mxCell>
        <mxCell id="NVErj-Y2SP6s06dEb738-77" value="" style="endArrow=none;dashed=1;html=1;rounded=0;entryX=0.5;entryY=1;entryDx=0;entryDy=0;strokeColor=#212121;" edge="1" parent="1" target="NVErj-Y2SP6s06dEb738-43">
          <mxGeometry width="50" height="50" relative="1" as="geometry">
            <mxPoint x="400" y="955" as="sourcePoint" />
            <mxPoint x="480" y="830" as="targetPoint" />
          </mxGeometry>
        </mxCell>
        <mxCell id="NVErj-Y2SP6s06dEb738-42" value="&lt;font style=&quot;color: rgb(33, 33, 33);&quot;&gt;Spawns SPICE session for user VM&lt;/font&gt;" style="rounded=0;whiteSpace=wrap;html=1;align=center;verticalAlign=middle;backgroundOutline=0;fontColor=#212121;fillColor=none;strokeColor=#212121;" vertex="1" parent="1">
          <mxGeometry x="620" y="680" width="120" height="40" as="geometry" />
        </mxCell>
        <mxCell id="eheHoFolUutEQpmwxyWd-60" value="" style="endArrow=classic;html=1;rounded=0;labelBackgroundColor=none;strokeColor=#F44336;backgroundOutline=0;fontColor=default;" parent="1" edge="1">
          <mxGeometry width="50" height="50" relative="1" as="geometry">
            <mxPoint x="679.5" y="740" as="sourcePoint" />
            <mxPoint x="400" y="740" as="targetPoint" />
          </mxGeometry>
        </mxCell>
        <mxCell id="eheHoFolUutEQpmwxyWd-61" value="Session SPICE file (.vv)" style="edgeLabel;html=1;align=center;verticalAlign=middle;resizable=0;points=[];labelBackgroundColor=none;fontColor=#F44336;backgroundOutline=0;" parent="eheHoFolUutEQpmwxyWd-60" vertex="1" connectable="0">
          <mxGeometry x="-0.0144" relative="1" as="geometry">
            <mxPoint y="-10" as="offset" />
          </mxGeometry>
        </mxCell>
        <mxCell id="NVErj-Y2SP6s06dEb738-64" value="" style="verticalLabelPosition=bottom;html=1;verticalAlign=top;strokeWidth=2;shape=mxgraph.lean_mapping.sequenced_pull_ball;align=right;backgroundOutline=0;fontColor=#212121;strokeColor=#212121;" vertex="1" parent="1">
          <mxGeometry x="675" y="950" width="10" height="10" as="geometry" />
        </mxCell>
        <mxCell id="NVErj-Y2SP6s06dEb738-78" value="" style="endArrow=none;dashed=1;html=1;rounded=0;exitX=0.5;exitY=0;exitDx=0;exitDy=0;strokeColor=#212121;" edge="1" parent="1" source="NVErj-Y2SP6s06dEb738-42">
          <mxGeometry width="50" height="50" relative="1" as="geometry">
            <mxPoint x="760" y="270" as="sourcePoint" />
            <mxPoint x="680" y="120" as="targetPoint" />
          </mxGeometry>
        </mxCell>
        <mxCell id="NVErj-Y2SP6s06dEb738-79" value="" style="endArrow=none;dashed=1;html=1;rounded=0;entryX=0.5;entryY=1;entryDx=0;entryDy=0;strokeColor=#212121;" edge="1" parent="1" target="NVErj-Y2SP6s06dEb738-42">
          <mxGeometry width="50" height="50" relative="1" as="geometry">
            <mxPoint x="680" y="956" as="sourcePoint" />
            <mxPoint x="690" y="820" as="targetPoint" />
          </mxGeometry>
        </mxCell>
        <mxCell id="NVErj-Y2SP6s06dEb738-80" value="&lt;font style=&quot;color: rgb(33, 33, 33);&quot;&gt;Proxmox VE&lt;/font&gt;" style="rounded=1;whiteSpace=wrap;html=1;align=center;verticalAlign=middle;fontColor=#212121;strokeColor=#212121;fillColor=none;" vertex="1" parent="1">
          <mxGeometry x="600" y="80" width="160" height="40" as="geometry" />
        </mxCell>
        <mxCell id="NVErj-Y2SP6s06dEb738-81" value="&lt;font color=&quot;#9c27b0&quot;&gt;Server ZeroTier:SPICE to PVE LAN:SPICE&lt;/font&gt;" style="edgeLabel;html=1;align=center;verticalAlign=middle;resizable=0;points=[];labelBackgroundColor=none;backgroundOutline=0;fontColor=default;" vertex="1" connectable="0" parent="1">
          <mxGeometry x="540" y="170" as="geometry">
            <mxPoint x="2" y="-1" as="offset" />
          </mxGeometry>
        </mxCell>
      </root>
    </mxGraphModel>
  </diagram>
</mxfile>
